<?xml version="1.0"?>
<svg version="1.1" id="svg2" x="0px" y="0px" viewBox="0 0 466.2 395.8" style="enable-background:new 0 0 466.2 395.8;" xmlns="http://www.w3.org/2000/svg">
  
  <g id="g3320" transform="translate(1.889225,-2.1891937)">
    <g>
      <g>
        <g>
          <g>
            <path class="st0" d="M35.8,244l1.2,1c-1.3-9-2-18.8,0.6-27.4c3.9-13.8,8.8-27.2,11.3-41.5c2-11.1,4.3-23.6,3-34.3 c-1.5,5.8-3,11.5-6.2,16.5c-12.1,18.7-24.5,40.7-16,64.5c-0.2,0.3-0.5,0.6-0.8,0.4c-3.4-7.9-4.2-16.8-6.4-25.2 c-5.9-22.3-23-41-18-66.8c-2.7,5.6-3.7,11.9-5.1,18c-3,15.8,0,32.5,4.3,47.1C9,214.4,26.7,227.4,35.8,244z" style="fill: rgb(214, 157, 54);"></path>
            <path class="st0" d="M31.2,128.2c4-8.2,10.5-16,18.3-21.8c17.2-13,36-29.8,36.3-51.8C80,70.4,62.7,77,51.2,87.8 c-6.1,5.7-10.8,12.6-13.5,19.8l-0.4-0.3c1.4-6.4,4.1-12.1,6-18.3c5-16.8,4.1-36.9,20.5-48.2C55.4,43,48.3,48.4,42,55.4l0,0 C28.7,70.1,29.9,91.8,31.6,111C32.2,117,31.9,122.1,31.2,128.2z" style="fill: rgb(214, 157, 54);"></path>
            <path class="st0" d="M51.2,80.3c9.2-8.6,19.8-15,27.6-25.2c9.3-12.3,17.4-26.1,29.6-36.7c-16.5,6.4-34.3,13-45,30 C57.1,58.3,56.1,70,51.2,80.3z" style="fill: rgb(214, 157, 54);"></path>
            <path class="st0" d="M58.1,123.8c4-8.1,6.5-17.3,7.6-26.2c-1.5,3.8-3.8,7.3-7,10.3C45.3,120.6,29.6,133,26.6,151 c-0.4,2.6-0.7,5.2-1.4,7.7c-0.6,0.3-0.6-0.4-0.8-0.6l1.7-22.2c1.6-21.7-9.8-45.8,2.7-64.9c-0.4-0.1-0.7,0.3-1,0.4 c-11.4,14.5-19,30.5-19,50c0,24.1,13.9,41,15.6,63.6C28,161.4,47.8,144.6,58.1,123.8z" style="fill: rgb(214, 157, 54);"></path>
            <path class="st0" d="M31.6,271.9C44.5,282.1,59.9,290,71.7,299c-2.3-5.9-6.1-11.3-7.6-17.4c-6.9-27.9-3.1-60.3-15-86.1 c2.2,14.7-3.6,27.7-4.9,41.7c-1.1,11.5,0.9,22.7,5.4,32.3c1.3,2.9,3.7,5.4,4.4,8.4c-4.3-3.9-7.4-8.8-10.3-13.6 c-13.9-22.5-43-37.1-45-64.5l0,0c-1,12.2,0.1,25.1,4.1,35.9C8.3,250.5,19.1,262,31.6,271.9z" style="fill: rgb(214, 157, 54);"></path>
            <path class="st0" d="M207,345.8c-22.5,0-42.7,10.9-62.4,19.1c-17.9,7.4-41.6,6-57.5-5c7.8,9.8,18.3,15.9,29.2,20 c20.1,8,43.6,1.9,60.8-9.1c12.3-7.9,22.9-19.1,37.6-19.1c23.7,0,48.6,24.3,69.9,46.3c3.3-2.7,6.8-5.5,9.5-8.6 C271.8,368.2,240.3,345.8,207,345.8z" style="fill: rgb(214, 157, 54);"></path>
            <path class="st0" d="M166.8,348.2c3.5-0.9,7.7-0.6,10.9-1.8c-13.4-2.7-26.3-6.8-36.7-16.3c-14.9-13.6-28.1-28.1-44-38.7 c12.5,16.8,16,41.2,38.8,49.7c4,1.5,8.7,1.8,12.2,4c-4.4,0.7-8.2-0.7-12.3-1.6c-29.4-6.3-65.2,1.8-87.2-23.2 c8.3,16.4,25.5,29.3,42.1,34.7C116.1,363.6,142.8,354.1,166.8,348.2z" style="fill: rgb(214, 157, 54);"></path>
            <path class="st0" d="M117.6,335.9c-19.1-15.4-22-38.5-30.5-58.7c-5.3-12.6-13.9-23.9-23.1-34.9c10.1,20.2,5.7,46.2,18.8,65.2 c4.1,6,9.8,11.7,15.1,16.4l-0.2,0.3c-4.8-2.2-9.1-5.6-13.5-9.2c-22.9-19.1-57.4-21.5-71.1-52.6l0,0c3.7,22.8,21.8,43,41.4,55.8 C73.1,330.4,97,329.1,117.6,335.9z" style="fill: rgb(214, 157, 54);"></path>
          </g>
          <g>
            <path class="st0" d="M383.7,55.1c7.8,10.3,18.4,16.6,27.6,25.2c-4.9-10.3-5.9-22-12.1-31.9c-10.7-17-28.5-23.6-45-30 C366.2,29,374.3,42.7,383.7,55.1z" style="fill: rgb(214, 157, 54);"></path>
            <path class="st0" d="M419.2,89c1.8,6.1,4.5,11.9,6,18.3l-0.4,0.3c-2.7-7.2-7.4-14.1-13.5-19.8c-11.5-10.9-28.8-17.4-34.5-33.3 c0.3,22.1,19.1,38.9,36.3,51.8c7.7,5.8,14.3,13.6,18.3,21.8c-0.7-6.1-1-11.2-0.4-17.1c1.8-19.3,2.9-40.9-10.3-55.6l0,0 c-6.3-7-13.4-12.5-21.8-14.6C415.1,52.1,414.2,72.2,419.2,89z" style="fill: rgb(214, 157, 54);"></path>
            <path class="st0" d="M436.4,135.8l1.7,22.2c-0.2,0.2-0.2,0.8-0.8,0.6c-0.7-2.5-1-5.1-1.4-7.7c-3-17.9-18.8-30.4-32.1-43.1 c-3.2-3-5.5-6.5-7-10.3c1.1,8.9,3.6,18.1,7.6,26.2c10.3,20.8,30.1,37.6,33.7,61.3c1.7-22.7,15.6-39.5,15.6-63.6 c0-19.5-7.6-35.5-19-50c-0.3-0.2-0.6-0.5-1-0.4C446.2,90.1,434.7,114.2,436.4,135.8z" style="fill: rgb(214, 157, 54);"></path>
            <path class="st0" d="M440,197.9c-2.2,8.4-3,17.4-6.4,25.2c-0.3,0.2-0.6-0.2-0.8-0.4c8.5-23.8-3.9-45.7-16-64.5 c-3.2-4.9-4.7-10.7-6.2-16.5c-1.3,10.8,1,23.2,3,34.3c2.6,14.3,7.4,27.7,11.3,41.5c2.6,8.6,1.9,18.3,0.6,27.4l1.2-1 c9-16.6,26.8-29.6,32.2-47.8c4.3-14.5,7.3-31.3,4.3-47.1l0,0c-1.4-6.1-2.5-12.4-5.1-18C463,156.9,445.9,175.6,440,197.9z" style="fill: rgb(214, 157, 54);"></path>
            <path class="st0" d="M317.8,364.9c-19.8-8.2-39.9-19.1-62.4-19.1c-33.2,0-64.8,22.5-86.9,43.6c2.7,3.1,6.2,6,9.5,8.6 c21.2-21.9,46.2-46.3,69.9-46.3c14.7,0,25.3,11.2,37.6,19.1c17.1,10.9,40.6,17.1,60.8,9.1c10.8-4.1,21.3-10.2,29.2-20 C359.5,370.8,335.7,372.3,317.8,364.9z" style="fill: rgb(214, 157, 54);"></path>
            <path class="st0" d="M463.9,199.6L463.9,199.6L463.9,199.6z" style="fill: rgb(214, 157, 54);"></path>
            <path class="st0" d="M418.9,264.1c-3,4.8-6,9.8-10.3,13.6c0.7-2.9,3.1-5.5,4.4-8.4c4.5-9.7,6.5-20.8,5.4-32.3 c-1.4-14-7.2-27-4.9-41.7c-12,25.8-8.1,58.2-15,86.1c-1.5,6.2-5.3,11.6-7.6,17.4c11.8-9,27.2-16.9,40.1-27.1 c12.5-9.8,23.3-21.4,29-36.4c4.1-10.8,5.1-23.7,4.1-35.9C462,227,432.8,241.6,418.9,264.1z" style="fill: rgb(214, 157, 54);"></path>
            <path class="st0" d="M378.1,315c-4.4,3.6-8.7,7-13.5,9.2l-0.2-0.3c5.3-4.8,11-10.5,15.1-16.4c13.1-19,8.7-45.1,18.8-65.2 c-9.2,11-17.8,22.3-23.1,34.9c-8.5,20.2-11.4,43.3-30.5,58.7c20.6-6.8,44.5-5.5,63-17.6c19.5-12.8,37.6-33,41.4-55.8 C435.5,293.5,401.1,295.9,378.1,315z" style="fill: rgb(214, 157, 54);"></path>
            <path class="st0" d="M449.2,262.4L449.2,262.4L449.2,262.4z" style="fill: rgb(214, 157, 54);"></path>
            <path class="st0" d="M326.8,343.6c-4.1,0.9-7.9,2.2-12.3,1.6c3.5-2.2,8.1-2.5,12.2-4c22.8-8.6,26.3-33,38.8-49.7 c-15.9,10.6-29.1,25.1-44,38.7c-10.4,9.5-23.3,13.5-36.7,16.3c3.2,1.2,7.4,0.9,10.9,1.8c24.1,6,50.7,15.4,76.3,6.9 c16.5-5.5,33.7-18.4,42.1-34.7C392,345.4,356.1,337.4,326.8,343.6z" style="fill: rgb(214, 157, 54);"></path>
          </g>
        </g>
      </g>
    </g>
  </g>
</svg>